<svg width="604" height="736" viewBox="0 0 604 736" fill="none" xmlns="http://www.w3.org/2000/svg">
<path d="M260.167 79.2998C276.095 62.4255 297.391 57.6245 316.861 61.0742C353.514 67.5686 386.946 103.301 386.499 148.746C386.184 180.755 386.175 239.604 386.249 291.775C406.398 252.004 428.739 206.998 444.271 173.089C454.563 150.622 468.767 133.561 487.188 125.626C506.713 117.215 526.42 121.029 541.528 131.541C569.855 151.251 582.671 193.257 570.987 233.044C561.253 266.193 539.274 320.035 520.303 364.446C510.71 386.904 501.704 407.366 495.099 422.211C491.795 429.636 489.088 435.662 487.205 439.838C487.073 440.132 486.943 440.416 486.818 440.691C486.856 441.367 486.897 442.093 486.938 442.866C487.223 448.225 487.591 455.892 487.929 465.194C488.603 483.768 489.163 509.013 488.684 535.515C488.207 561.88 486.692 590.149 483.064 614.545C481.252 626.733 478.828 638.545 475.504 648.943C472.315 658.919 467.643 669.733 460.171 678.125C451.361 688.019 438.333 693.419 427.343 696.792C415.426 700.449 401.319 703.035 386.351 704.882C356.318 708.587 319.837 709.663 284.016 709.059C248.086 708.453 212.063 706.144 182.72 702.869C168.068 701.234 154.792 699.326 143.879 697.202C133.842 695.249 123.166 692.647 115.551 688.725C105.604 683.6 98.7836 674.974 94.1934 667.702C89.3235 659.987 85.2273 650.973 81.7422 641.809C74.7557 623.437 69.1002 601.426 64.6836 580.879C60.2295 560.158 56.8614 540.092 54.6113 525.268C53.4835 517.836 52.6297 511.678 52.0557 507.357C51.7685 505.196 51.5515 503.492 51.4043 502.316C51.3307 501.729 51.2738 501.273 51.2354 500.957C51.2161 500.799 51.2018 500.676 51.1914 500.59C51.1862 500.547 51.1817 500.512 51.1787 500.487C51.1772 500.475 51.1767 500.465 51.1758 500.457C51.1753 500.453 51.1741 500.448 51.1738 500.446C51.1763 500.442 51.4423 500.408 76 497.5L51.1738 500.44L51.0342 499.263L51.0068 498.078L49.0068 411.578L48.5469 391.684L67.8311 386.773L237.403 343.593C237.35 331.394 237.287 314.152 237.245 293.783C237.16 252.784 237.16 199.078 237.501 148.332C237.695 119.425 244.892 95.482 260.167 79.2998Z" fill="#FFFCF3" stroke="black" stroke-width="50"/>
<rect x="21.0152" y="362.295" width="143.381" height="286.343" rx="71.6907" transform="rotate(-26.9897 21.0152 362.295)" fill="#FFFCF3" stroke="black" stroke-width="50"/>
<rect x="104.377" y="313.448" width="143.381" height="286.343" rx="71.6907" transform="rotate(-26.9897 104.377 313.448)" fill="#FFFCF3" stroke="black" stroke-width="50"/>
<path d="M351 544C351 544 317.5 544 267.5 544C217.5 544 220.5 450 263.5 450C306.5 450 394 450 394 450L463.5 509" stroke="black" stroke-width="50"/>
<path d="M275.891 94.7275C285.912 84.1121 299.215 80.8948 312.297 83.2129C338.234 87.8085 363.7 114.17 363.362 148.508C363.036 181.595 363.036 243.08 363.118 296.308C363.158 322.918 363.219 347.46 363.27 365.35C363.292 373.034 363.312 379.491 363.328 384.356C365.145 380.867 367.445 376.45 370.134 371.263C377.249 357.54 387.106 338.436 398.072 316.911C420.008 273.851 446.363 221.141 464.089 182.442C473.106 162.758 484.06 151.18 495.451 146.273C506.952 141.319 518.485 143.346 528.04 149.994C546.96 163.159 558.253 194.359 548.76 226.688C539.462 258.352 518.027 310.987 498.973 355.591C489.436 377.918 480.478 398.273 473.904 413.047C470.617 420.434 467.926 426.426 466.056 430.572C465.121 432.645 464.392 434.256 463.896 435.35C463.688 435.808 463.52 436.176 463.396 436.448C463.419 436.807 463.451 437.315 463.49 437.965C463.574 439.363 463.692 441.417 463.832 444.043C464.11 449.294 464.473 456.834 464.805 465.994C465.47 484.312 466.019 509.125 465.549 535.091C465.08 561.043 463.592 588.213 460.17 611.219C458.46 622.721 456.257 633.241 453.433 642.076C450.623 650.868 447.132 658.2 442.729 663.146C438.192 668.241 430.188 672.17 420.104 675.265C409.927 678.387 397.247 680.772 382.957 682.535C354.367 686.063 319.036 687.14 283.757 686.545C248.467 685.95 213.154 683.68 184.577 680.491C170.29 678.897 157.658 677.07 147.54 675.101C137.509 673.148 129.691 671.011 125.217 668.706C120.51 666.281 116.326 661.608 112.582 655.676C108.809 649.699 105.33 642.199 102.134 633.794C95.7403 616.98 90.3654 596.245 86.0425 576.134C81.7158 556.005 78.4261 536.421 76.2183 521.874C75.1141 514.599 74.2796 508.579 73.7212 504.377C73.442 502.276 73.2319 500.628 73.0913 499.505C73.021 498.943 72.9685 498.512 72.9331 498.222C72.9154 498.076 72.902 497.966 72.8931 497.892C72.8886 497.855 72.8846 497.827 72.8823 497.808C72.8812 497.798 72.881 497.79 72.8804 497.785C72.8801 497.783 72.8795 497.78 72.8794 497.779C72.8825 497.778 72.9703 497.767 75.3618 497.483L72.8794 497.777L72.8647 497.66L72.8628 497.541L70.8628 411.041L70.8169 409.052L72.7446 408.561L259.35 361.042C259.346 360.24 259.34 359.199 259.333 357.934C259.316 354.639 259.293 349.82 259.266 343.722C259.213 331.524 259.149 314.205 259.107 293.721C259.022 252.753 259.022 199.119 259.362 148.467C259.534 122.787 265.936 105.274 275.891 94.7275Z" fill="#FFFCF3" stroke="black" stroke-width="5"/>
<rect x="50.6377" y="372.117" width="98.3814" height="241.343" rx="49.1907" transform="rotate(-26.9897 50.6377 372.117)" fill="#FFFCF3" stroke="black" stroke-width="5"/>
<rect x="134" y="323.27" width="98.3814" height="241.343" rx="49.1907" transform="rotate(-26.9897 134 323.27)" fill="#FFFCF3" stroke="black" stroke-width="5"/>
<path d="M350.362 543.983C350.362 543.983 316.862 543.983 266.862 543.983C216.862 543.983 219.862 449.983 262.862 449.983C305.862 449.983 393.362 449.983 393.362 449.983L462.862 508.983" stroke="black" stroke-width="5"/>
<path d="M315 452.5H307L237.5 503.5L233 506L235 514L236.5 515.5L242 524L256 527.5L267 529.5L277.5 526.5L299 520L314.5 512L324 497L315 452.5Z" fill="#FFFCF3"/>
</svg>
